<svg width="512" height="512" xmlns="http://www.w3.org/2000/svg">

 <g>
  <title>background</title>
  <rect fill="none" id="canvas_background" height="602" width="802" y="-1" x="-1"/>
 </g>
 <g>
  <title>Layer 1</title>
  <g id="svg_1">
   <g id="svg_2">
    <path fill="red" id="svg_3" d="m425.667,384c23.467,0 42.453,-19.2 42.453,-42.667l0.213,-213.333c0,-23.68 -19.2,-42.667 -42.667,-42.667l-341.333,0c-23.68,0 -42.667,18.987 -42.667,42.667l0,213.333c0.001,23.467 18.987,42.667 42.667,42.667l-85.333,0l0,42.667l512,0l0,-42.667l-85.333,0zm-149.334,-75.307l0,-46.72c-59.307,0 -98.347,18.133 -128,58.027c11.947,-56.96 45.013,-113.707 128,-125.227l0,-45.44l85.333,79.573l-85.333,79.787z"/>
   </g>
  </g>
  <g id="svg_4"/>
  <g id="svg_5"/>
  <g id="svg_6"/>
  <g id="svg_7"/>
  <g id="svg_8"/>
  <g id="svg_9"/>
  <g id="svg_10"/>
  <g id="svg_11"/>
  <g id="svg_12"/>
  <g id="svg_13"/>
  <g id="svg_14"/>
  <g id="svg_15"/>
  <g id="svg_16"/>
  <g id="svg_17"/>
  <g id="svg_18"/>
 </g>
</svg>